<svg id="Layer_1" data-name="Layer 1" xmlns="http://www.w3.org/2000/svg" viewBox="0 0 781.62 799.54"><defs><style>.cls-1{fill:#589adc;}.cls-2{fill:#33547d;}.cls-3{fill:#fefefe;}</style></defs><path class="cls-1" d="M112.55,377.86a48.35,48.35,0,0,0-1.34-5.2q-14.79-39.09-29.66-78.15c-2.9-7.62-.87-12.24,6.78-15.15l164.91-62.52L417.6,154.48,587.07,90.22c14.86-5.63,29.7-11.33,44.59-16.88,7.4-2.76,12.41-.28,15,6.44q46.92,124.14,94,248.21,40.68,107.29,81.5,214.55c3.25,8.55-.49,13.83-7.08,15.82-4.83,1.45-9.42,3.69-14.11,5.57-.91.25-1.85.43-2.73.76q-30.35,11.47-60.69,23L651.6,620.24l-85.9,32.57L479.52,685.5,393.89,718q-40.41,15.32-80.81,30.65c-14.13,5.37-28.25,10.79-42.4,16.12a9.89,9.89,0,0,1-13-5.72q-13.61-35.84-27.16-71.69Q210.23,633.78,190,580.2q-19.39-51.13-38.83-102.27-18.52-48.85-37-97.74A13.29,13.29,0,0,0,112.55,377.86ZM311.84,245.64H568.47c-.8,1.13-1.29,1.91-1.85,2.63L477.46,363.65l-71.2,92.18L312.91,576.7c-.46.59-1.12,1.27-1.14,1.92-.1,4.28,0,8.56,0,12.82H662.48V564.88H393.57L660.63,219.23H311.84Z" transform="translate(-41.69 -72.23)"/><path class="cls-2" d="M112.55,377.86a13.29,13.29,0,0,1,1.55,2.33q18.54,48.85,37,97.74Q170.5,529.08,190,580.2q20.3,53.56,40.56,107.14,13.58,35.85,27.16,71.69a9.89,9.89,0,0,0,13,5.72c14.15-5.33,28.27-10.75,42.4-16.12q40.41-15.35,80.81-30.65l85.63-32.48,86.18-32.69,85.9-32.57,85.91-32.59q30.33-11.49,60.69-23c.88-.33,1.82-.51,2.73-.76,3.27,6.16,6.65,12.26,9.76,18.5a9.86,9.86,0,0,1-4.48,13.24q-52.11,27.65-104.12,55.46L597.77,706.7l-70.16,37.4q-35.89,19.13-71.8,38.24-35.7,19-71.44,37.93-42.49,22.65-84.95,45.42c-2.85,1.53-5.74,3-8.57,4.58-6.2,3.44-11,.47-13.52-4-2.95-5.11-5.66-10.36-8.43-15.57q-8.67-16.32-17.3-32.66-11.08-20.87-22.22-41.71-23.58-44.25-47.15-88.49l-46.42-87.14q-16.49-30.93-33-61.85l-41.55-78c-6-11.27-11.87-22.63-18.09-33.8-3.37-6-.82-12.07,4.59-14.9,19.28-10.1,38.44-20.42,57.66-30.65C107.81,380.29,110.18,379.09,112.55,377.86Z" transform="translate(-41.69 -72.23)"/><path class="cls-3" d="M311.84,245.64V219.23H660.63L393.57,564.88H662.48v26.56H311.72c0-4.26-.05-8.54,0-12.82,0-.65.68-1.33,1.14-1.92l93.35-120.87,71.2-92.18,89.16-115.38c.56-.72,1-1.5,1.85-2.63Z" transform="translate(-41.69 -72.23)"/></svg>